<?xml version="1.0" encoding="utf-8"?>
<!-- Generator: Adobe Illustrator 17.1.0, SVG Export Plug-In . SVG Version: 6.00 Build 0)  -->
<!DOCTYPE svg PUBLIC "-//W3C//DTD SVG 1.1//EN" "http://www.w3.org/Graphics/SVG/1.1/DTD/svg11.dtd">
<svg version="1.1" id="Layer_1" xmlns="http://www.w3.org/2000/svg" xmlns:xlink="http://www.w3.org/1999/xlink" x="0px" y="0px"
	 viewBox="0 0 300 302" enable-background="new 0 0 300 302" xml:space="preserve">
<radialGradient id="SVGID_1_" cx="-89.6142" cy="515.8575" r="264.5765" gradientTransform="matrix(1 0 0 -1 149.0522 576.3086)" gradientUnits="userSpaceOnUse">
	<stop  offset="0" style="stop-color:#9DD5F6"/>
	<stop  offset="7.110000e-02" style="stop-color:#98D3F5"/>
	<stop  offset="0.1575" style="stop-color:#89CEF3"/>
	<stop  offset="0.2516" style="stop-color:#70C6EF"/>
	<stop  offset="0.3514" style="stop-color:#4EBBEA"/>
	<stop  offset="0.4546" style="stop-color:#23ADE3"/>
	<stop  offset="0.5" style="stop-color:#0DA6E0"/>
	<stop  offset="1" style="stop-color:#2E77BC"/>
</radialGradient>
<path fill="url(#SVGID_1_)" d="M291.6,11H9.7v283h281.9v-93.4c1.1-1.6,1.7-3.7,1.7-6.2c0-2.9-0.6-4.7-1.7-6.2"/>
<path fill="#FFFFFF" d="M35.1,133.5l-5.4-13.2l-5.4,13.2 M154.6,128.2c-1.1,0.7-2.4,0.7-3.9,0.7H141v-7.4h9.8c1.4,0,2.8,0.1,3.8,0.6
	c1,0.5,1.7,1.5,1.7,2.9C156.2,126.5,155.6,127.7,154.6,128.2z M223.3,133.5l-5.5-13.2l-5.5,13.2H223.3z M95.3,147.8h-8.1l0-26
	l-11.5,26h-7l-11.5-26v26H41l-3-7.4H21.5l-3.1,7.4H9.8L24,114.6h11.8L49.2,146v-31.4h12.9l10.4,22.5l9.5-22.5h13.2L95.3,147.8
	L95.3,147.8z M127.6,147.8h-26.5v-33.2h26.5v6.9h-18.5v6h18.1v6.8h-18.1v6.6h18.5V147.8z M165,123.5c0,5.3-3.5,8-5.6,8.8
	c1.7,0.7,3.2,1.8,3.9,2.8c1.1,1.6,1.3,3.1,1.3,6.1v6.5h-8l0-4.2c0-2,0.2-4.9-1.3-6.5c-1.2-1.2-2.9-1.4-5.8-1.4H141v12.1h-7.9v-33.2
	h18.2c4,0,7,0.1,9.6,1.6C163.5,117.7,165,119.8,165,123.5z M177.6,147.8h-8.1v-33.2h8.1V147.8z M271.4,147.8h-11.2l-15-24.9v24.9
	h-16.1l-3.1-7.4h-16.5l-3,7.4h-9.3c-3.9,0-8.7-0.9-11.5-3.7c-2.8-2.8-4.2-6.6-4.2-12.7c0-4.9,0.9-9.4,4.3-13c2.6-2.6,6.6-3.9,12-3.9
	h7.7v7.1H198c-2.9,0-4.5,0.4-6.1,2c-1.4,1.4-2.3,4-2.3,7.5c0,3.6,0.7,6.1,2.2,7.8c1.2,1.3,3.4,1.7,5.5,1.7h3.6l11.2-26.1h11.9
	l13.4,31.4v-31.4h12.1l13.9,23.1v-23.1h8.1V147.8L271.4,147.8z M9.7,154.3h13.5l3.1-7.4h6.8l3,7.4h26.6v-5.6l2.4,5.7H79l2.4-5.7v5.7
	h66.2l0-12.1h1.3c0.9,0,1.2,0.1,1.2,1.6v10.5h34.2v-2.8c2.8,1.5,7.1,2.8,12.7,2.8h14.4l3.1-7.4h6.8l3,7.4h27.8v-7l4.2,7h22.2V108
	h-22v5.5l-3.1-5.5h-22.6v5.5L228,108h-30.5c-5.1,0-9.6,0.7-13.2,2.7V108h-21.1v2.7c-2.3-2-5.5-2.7-9-2.7H77.3L72.1,120L66.8,108
	H42.6v5.5L40,108H19.3l-9.6,22L9.7,154.3L9.7,154.3z"/>
<path fill="#FFFFFF" d="M291.6,178.7h-14.4c-1.4,0-2.4,0.1-3.2,0.6c-0.8,0.5-1.2,1.3-1.2,2.4c0,1.3,0.7,2.1,1.7,2.5
	c0.8,0.3,1.7,0.4,3.1,0.4l4.3,0.1c4.3,0.1,7.2,0.9,9,2.7c0.3,0.3,0.5,0.5,0.7,0.8 M291.6,200.6c-1.9,2.8-5.7,4.2-10.8,4.2h-15.3
	v-7.1h15.2c1.5,0,2.6-0.2,3.2-0.8c0.6-0.5,0.9-1.3,0.9-2.2c0-1-0.4-1.7-1-2.2c-0.6-0.5-1.4-0.7-2.8-0.7c-7.4-0.3-16.7,0.2-16.7-10.3
	c0-4.8,3.1-9.9,11.4-9.9h15.8v-6.6H277c-4.4,0-7.6,1.1-9.9,2.7v-2.7h-21.7c-3.5,0-7.5,0.9-9.5,2.7v-2.7h-38.7v2.7
	c-3.1-2.2-8.3-2.7-10.7-2.7h-25.6v2.7c-2.4-2.4-7.9-2.7-11.2-2.7h-28.6l-6.5,7.1l-6.1-7.1H65.8v46.3h41.9l6.7-7.2l6.4,7.2l25.8,0
	v-10.9h2.5c3.4,0.1,7.5-0.1,11-1.6v12.5h21.3v-12.1h1c1.3,0,1.4,0.1,1.4,1.4v10.7h64.7c4.1,0,8.4-1.1,10.8-3v3H280
	c4.3,0,8.4-0.6,11.6-2.1V200.6L291.6,200.6z M260,187.3c1.5,1.6,2.4,3.6,2.4,7c0,7.1-4.5,10.5-12.4,10.5h-15.4v-7.1h15.4
	c1.5,0,2.6-0.2,3.2-0.8c0.5-0.5,0.9-1.3,0.9-2.2c0-1-0.4-1.7-1-2.2c-0.6-0.5-1.4-0.7-2.8-0.7c-7.4-0.3-16.7,0.2-16.7-10.3
	c0-4.8,3-9.9,11.3-9.9h15.9v7.1h-14.5c-1.4,0-2.4,0.1-3.2,0.6c-0.9,0.5-1.2,1.3-1.2,2.4c0,1.3,0.7,2.1,1.7,2.5
	c0.8,0.3,1.7,0.4,3.1,0.4l4.3,0.1C255.3,184.8,258.2,185.5,260,187.3z M188.5,185.3c-1.1,0.6-2.4,0.7-3.9,0.7H175v-7.4h9.8
	c1.4,0,2.8,0,3.8,0.6c1,0.5,1.6,1.6,1.6,3C190.2,183.5,189.5,184.7,188.5,185.3z M193.3,189.4c1.8,0.7,3.2,1.8,3.9,2.8
	c1.1,1.6,1.3,3.1,1.3,6.1v6.6h-8v-4.1c0-2,0.2-4.9-1.3-6.5c-1.2-1.2-2.9-1.5-5.8-1.5H175v12.1h-8v-33.2h18.3c4,0,6.9,0.2,9.5,1.6
	c2.5,1.5,4.1,3.6,4.1,7.4C198.9,185.9,195.4,188.6,193.3,189.4z M203.3,171.7h26.4v6.9h-18.6v6h18.1v6.8h-18.1v6.6l18.6,0v6.9h-26.4
	V171.7z M149.8,187h-10.2v-8.4h10.3c2.9,0,4.8,1.2,4.8,4.1C154.8,185.5,152.9,187,149.8,187z M131.7,201.8l-12.2-13.5l12.2-13.1
	V201.8z M100.3,197.9H80.8v-6.6h17.4v-6.8H80.8v-6h19.9l8.7,9.7L100.3,197.9z M163.3,182.6c0,9.2-6.9,11.1-13.8,11.1h-9.9v11.1
	h-15.4l-9.8-11l-10.1,11H72.9v-33.2h31.9l9.8,10.9l10.1-10.9h25.3C156.2,171.7,163.3,173.4,163.3,182.6z"/>
</svg>
