<?xml version="1.0" encoding="utf-8"?>
<!-- Generator: Adobe Illustrator 17.1.0, SVG Export Plug-In . SVG Version: 6.00 Build 0)  -->
<!DOCTYPE svg PUBLIC "-//W3C//DTD SVG 1.1//EN" "http://www.w3.org/Graphics/SVG/1.1/DTD/svg11.dtd">
<svg version="1.1" id="Layer_1" xmlns="http://www.w3.org/2000/svg" xmlns:xlink="http://www.w3.org/1999/xlink" x="0px" y="0px"
	 viewBox="0 0 299 296" enable-background="new 0 0 299 296" xml:space="preserve">
<path fill="#8499A6" d="M292.6,9H10.7v283h281.9v-93.4c1.1-1.6,1.7-3.7,1.7-6.2c0-2.9-0.6-4.7-1.7-6.2"/>
<path fill="#FFFFFF" d="M36.1,131.5l-5.4-13.2l-5.4,13.2 M155.6,126.2c-1.1,0.7-2.4,0.7-3.9,0.7H142v-7.4h9.8c1.4,0,2.8,0.1,3.8,0.6
	c1,0.5,1.7,1.5,1.7,2.9C157.2,124.5,156.6,125.7,155.6,126.2z M224.3,131.5l-5.5-13.2l-5.5,13.2H224.3z M96.3,145.8h-8.1l0-26
	l-11.5,26h-7l-11.5-26v26H42l-3-7.4H22.5l-3.1,7.4h-8.6L25,112.6h11.8L50.2,144v-31.4h12.9l10.4,22.5l9.5-22.5h13.2L96.3,145.8
	L96.3,145.8z M128.6,145.8h-26.5v-33.2h26.5v6.9h-18.5v6h18.1v6.8h-18.1v6.6h18.5V145.8z M166,121.5c0,5.3-3.5,8-5.6,8.8
	c1.7,0.7,3.2,1.8,3.9,2.8c1.1,1.6,1.3,3.1,1.3,6.1v6.5h-8l0-4.2c0-2,0.2-4.9-1.3-6.5c-1.2-1.2-2.9-1.4-5.8-1.4H142v12.1h-7.9v-33.2
	h18.2c4,0,7,0.1,9.6,1.6C164.5,115.7,166,117.8,166,121.5z M178.6,145.8h-8.1v-33.2h8.1V145.8z M272.4,145.8h-11.2l-15-24.9v24.9
	h-16.1l-3.1-7.4h-16.5l-3,7.4h-9.3c-3.9,0-8.7-0.9-11.5-3.7c-2.8-2.8-4.2-6.6-4.2-12.7c0-4.9,0.9-9.4,4.3-13c2.6-2.6,6.6-3.9,12-3.9
	h7.7v7.1H199c-2.9,0-4.5,0.4-6.1,2c-1.4,1.4-2.3,4-2.3,7.5c0,3.6,0.7,6.1,2.2,7.8c1.2,1.3,3.4,1.7,5.5,1.7h3.6l11.2-26.1h11.9
	l13.4,31.4v-31.4h12.1l13.9,23.1v-23.1h8.1V145.8L272.4,145.8z M10.7,152.3h13.5l3.1-7.4h6.8l3,7.4h26.6v-5.6l2.4,5.7H80l2.4-5.7
	v5.7h66.2l0-12.1h1.3c0.9,0,1.2,0.1,1.2,1.6v10.5h34.2v-2.8c2.8,1.5,7.1,2.8,12.7,2.8h14.4l3.1-7.4h6.8l3,7.4h27.8v-7l4.2,7h22.2
	V106h-22v5.5l-3.1-5.5h-22.6v5.5L229,106h-30.5c-5.1,0-9.6,0.7-13.2,2.7V106h-21.1v2.7c-2.3-2-5.5-2.7-9-2.7H78.3L73.1,118L67.8,106
	H43.6v5.5L41,106H20.3l-9.6,22L10.7,152.3L10.7,152.3z"/>
<path fill="#FFFFFF" d="M292.6,176.7h-14.4c-1.4,0-2.4,0.1-3.2,0.6c-0.8,0.5-1.2,1.3-1.2,2.4c0,1.3,0.7,2.1,1.7,2.5
	c0.8,0.3,1.7,0.4,3.1,0.4l4.3,0.1c4.3,0.1,7.2,0.9,9,2.7c0.3,0.3,0.5,0.5,0.7,0.8 M292.6,198.6c-1.9,2.8-5.7,4.2-10.8,4.2h-15.3
	v-7.1h15.2c1.5,0,2.6-0.2,3.2-0.8c0.6-0.5,0.9-1.3,0.9-2.2c0-1-0.4-1.7-1-2.2c-0.6-0.5-1.4-0.7-2.8-0.7c-7.4-0.3-16.7,0.2-16.7-10.3
	c0-4.8,3.1-9.9,11.4-9.9h15.8v-6.6H278c-4.4,0-7.6,1.1-9.9,2.7v-2.7h-21.7c-3.5,0-7.5,0.9-9.5,2.7v-2.7h-38.7v2.7
	c-3.1-2.2-8.3-2.7-10.7-2.7h-25.6v2.7c-2.4-2.4-7.9-2.7-11.2-2.7h-28.6l-6.5,7.1l-6.1-7.1H66.8v46.3h41.9l6.7-7.2l6.4,7.2l25.8,0
	v-10.9h2.5c3.4,0.1,7.5-0.1,11-1.6v12.5h21.3v-12.1h1c1.3,0,1.4,0.1,1.4,1.4v10.7h64.7c4.1,0,8.4-1.1,10.8-3v3H281
	c4.3,0,8.4-0.6,11.6-2.1V198.6L292.6,198.6z M261,185.3c1.5,1.6,2.4,3.6,2.4,7c0,7.1-4.5,10.5-12.4,10.5h-15.4v-7.1h15.4
	c1.5,0,2.6-0.2,3.2-0.8c0.5-0.5,0.9-1.3,0.9-2.2c0-1-0.4-1.7-1-2.2c-0.6-0.5-1.4-0.7-2.8-0.7c-7.4-0.3-16.7,0.2-16.7-10.3
	c0-4.8,3-9.9,11.3-9.9h15.9v7.1h-14.5c-1.4,0-2.4,0.1-3.2,0.6c-0.9,0.5-1.2,1.3-1.2,2.4c0,1.3,0.7,2.1,1.7,2.5
	c0.8,0.3,1.7,0.4,3.1,0.4l4.3,0.1C256.3,182.8,259.2,183.5,261,185.3z M189.5,183.3c-1.1,0.6-2.4,0.7-3.9,0.7H176v-7.4h9.8
	c1.4,0,2.8,0,3.8,0.6c1,0.5,1.6,1.6,1.6,3C191.2,181.5,190.5,182.7,189.5,183.3z M194.3,187.4c1.8,0.7,3.2,1.8,3.9,2.8
	c1.1,1.6,1.3,3.1,1.3,6.1v6.6h-8v-4.1c0-2,0.2-4.9-1.3-6.5c-1.2-1.2-2.9-1.5-5.8-1.5H176v12.1h-8v-33.2h18.3c4,0,6.9,0.2,9.5,1.6
	c2.5,1.5,4.1,3.6,4.1,7.4C199.9,183.9,196.4,186.6,194.3,187.4z M204.3,169.7h26.4v6.9h-18.6v6h18.1v6.8h-18.1v6.6l18.6,0v6.9h-26.4
	V169.7z M150.8,185h-10.2v-8.4h10.3c2.9,0,4.8,1.2,4.8,4.1C155.8,183.5,153.9,185,150.8,185z M132.7,199.8l-12.2-13.5l12.2-13.1
	V199.8z M101.3,195.9H81.8v-6.6h17.4v-6.8H81.8v-6h19.9l8.7,9.7L101.3,195.9z M164.3,180.6c0,9.2-6.9,11.1-13.8,11.1h-9.9v11.1
	h-15.4l-9.8-11l-10.1,11H73.9v-33.2h31.9l9.8,10.9l10.1-10.9h25.3C157.2,169.7,164.3,171.4,164.3,180.6z"/>
</svg>
