<?xml version="1.0" encoding="utf-8"?>
<!-- Generator: Adobe Illustrator 17.1.0, SVG Export Plug-In . SVG Version: 6.00 Build 0)  -->
<!DOCTYPE svg PUBLIC "-//W3C//DTD SVG 1.1//EN" "http://www.w3.org/Graphics/SVG/1.1/DTD/svg11.dtd">
<svg version="1.1" id="Layer_1" xmlns="http://www.w3.org/2000/svg" xmlns:xlink="http://www.w3.org/1999/xlink" x="0px" y="0px"
	 viewBox="0 0 430 57" enable-background="new 0 0 430 57" xml:space="preserve">
<g>
	<path fill="#E11B22" d="M27.1,20.3c2.1-1.4,4.1-2.7,6.2-3.5c2.1-0.9,4.2-1.3,6.2-1.4c2,0,3.9,0.4,5.7,1.1c1.7,0.8,3.1,2,4.2,3.8
		c2.1-1.4,4.1-2.7,6.2-3.5c2.1-0.9,4.2-1.3,6.2-1.4c2,0,3.9,0.4,5.7,1.1c1.7,0.8,3.2,2,4.2,3.8c1.1,1.8,1.6,4.2,1.6,7.2v23.8h-8.8
		V30c0.1-2-0.2-3.7-0.9-5c-0.7-1.3-2.1-2-4.2-2c-1.6,0-3.1,0.4-4.5,1.1c-1.4,0.7-2.7,1.5-3.9,2.4c0,0.3,0,0.7,0,1v23.8h-8.8V30
		c0.1-2-0.2-3.7-0.9-5c-0.7-1.3-2.1-2-4.2-2c-1.6,0-3.1,0.4-4.5,1.1c-1.4,0.7-2.7,1.5-3.8,2.4c0,0.3,0,0.7,0,1v23.8H20V30
		c0.1-2-0.2-3.7-0.9-5c-0.7-1.3-2.1-2-4.2-2c-1.6,0-3.1,0.4-4.6,1.1c-1.4,0.7-2.7,1.5-3.9,2.4c-0.1-2.6-0.6-4.6-1.6-6.2
		c2.1-1.5,4.1-2.7,6.2-3.5c2.2-0.9,4.2-1.3,6.2-1.4c2,0,3.9,0.4,5.7,1.1C24.6,17.3,26.1,18.5,27.1,20.3"/>
	<path fill="#001B50" d="M181.9,16.5c-1.7-0.7-3.6-1.1-5.7-1.1c-2,0-4,0.5-6.2,1.4c-2.2,0.9-4.3,2.2-6.3,3.9c-0.8-1.6-2-2.9-3.6-3.9
		c-1.6-0.9-3.4-1.4-5.6-1.4c-4.1,0.1-8.1,1.6-11.9,4.7l-0.9-3.9h-7.5v35.1h8.9V26.6c1.2-1,2.4-1.8,3.9-2.5c1.5-0.7,2.9-1.1,4.5-1.1
		c2.1,0,3.5,0.7,4.1,2.1c0.7,1.3,1,3,0.9,5.1v21.1h8.9V27.8c0-0.5,0-0.9-0.1-1.3c1.2-1,2.5-1.8,3.9-2.5c1.5-0.7,3-1.1,4.6-1.1
		c2.1,0,3.5,0.7,4.2,2c0.7,1.3,1,3,0.9,5v21.3h8.8V27.5c0-3-0.6-5.5-1.6-7.2C185.1,18.5,183.7,17.3,181.9,16.5 M216.9,15.4
		c-3.3,0.1-6.2,0.9-8.6,2.5c-2.4,1.7-4.2,3.9-5.4,6.6c-1.3,2.7-1.9,5.8-1.9,9.2c0,3.2,0.6,6.2,1.8,8.9c1.2,2.8,3.1,5,5.7,6.7
		c2.5,1.7,5.9,2.6,10,2.6c2.1,0,4.3-0.3,6.5-0.9c2.2-0.6,4.3-1.6,6.3-2.9l-2.2-5.7c-1.5,0.8-3,1.4-4.5,1.8c-1.5,0.4-3,0.6-4.7,0.6
		c-2.8,0-5.1-0.9-6.9-2.4c-1.8-1.6-2.8-3.8-3-6.4h22.6v-2.6c-0.1-5.6-1.5-9.9-4.3-13.2C225.5,17.2,221.7,15.5,216.9,15.4
		 M209.8,29.8c0-2,0.6-3.8,1.9-5.3c1.2-1.5,2.9-2.3,5.1-2.4c2.3,0.1,3.9,0.9,5,2.5c1.1,1.5,1.7,3.3,1.7,5.3H209.8z M272.4,16.6
		c-1.7-0.8-3.4-1.2-5.2-1.2c-2.3,0-4.5,0.4-6.5,1.2c-2,0.8-3.9,1.9-5.8,3.3l-1-3.8h-7.6v35h8.9V26.8c1.4-1.1,2.8-2,4.3-2.7
		c1.5-0.7,3-1.1,4.6-1.1c2.2,0.1,3.6,0.9,4.3,2.5c0.7,1.5,1,3.3,0.9,5.2v20.6h8.9V28c0-3.1-0.6-5.6-1.7-7.5
		C275.5,18.7,274.1,17.4,272.4,16.6 M307.9,44c-1,0.4-2.1,0.6-3.3,0.6c-2.3,0-3.4-1.3-3.3-4V23h8.3l2.6-6.7h-10.9V5.5l-8.9,2.7v35.6
		c0,2.4,0.6,4.4,2,5.9c1.4,1.5,3.6,2.3,6.7,2.3c1.7,0,3.7-0.3,5.8-0.9c2.1-0.6,4.1-1.6,6-2.9l-2.4-5.6
		C309.8,43.2,308.9,43.6,307.9,44 M355.8,41.6V16.3h-8.9v25.8c-0.8,0.7-1.7,1.4-2.9,2c-1.1,0.6-2.4,0.9-3.9,0.9
		c-2.1,0-3.7-0.6-4.7-1.9c-1-1.2-1.6-3-1.6-5.2V16.3H325v22.1c0,3.7,0.7,6.6,2,8.5c1.3,2,2.9,3.3,4.7,4.1c1.8,0.7,3.5,1,5.1,1
		c2.3,0,4.4-0.5,6.2-1.3c1.8-0.8,3.3-1.8,4.5-3l1.6,3.5h7.3c-0.3-0.8-0.5-2-0.6-3.5C355.9,46.4,355.8,44.3,355.8,41.6 M422.2,20.3
		c-1.1-1.8-2.5-3-4.2-3.8c-1.7-0.7-3.6-1.1-5.6-1.1c-2,0-4,0.5-6.2,1.4c-2.1,0.9-4.3,2.2-6.3,3.9c-0.8-1.6-2-2.9-3.6-3.9
		c-1.6-0.9-3.4-1.4-5.6-1.4c-4.1,0.1-8.1,1.6-11.9,4.7l-0.9-3.9h-7.5v35.1h8.9V26.6c1.2-1,2.5-1.8,3.9-2.5c1.4-0.7,2.9-1.1,4.5-1.1
		c2.1,0,3.5,0.7,4.1,2.1c0.7,1.3,1,3,0.9,5.1v21.1h8.9V27.8c0-0.5,0-0.9-0.1-1.3c1.1-1,2.4-1.8,3.9-2.5c1.4-0.7,3-1.1,4.6-1.1
		c2.1,0,3.5,0.7,4.2,2c0.7,1.3,1,3,0.9,5v21.3h8.8V27.5C423.8,24.5,423.2,22.1,422.2,20.3 M103.5,15.4c-5.2,0.1-9.3,1.8-12.5,5
		c-1.6,1.7-2.9,3.7-3.8,6C86.4,28.7,86,31.2,86,34c0,2.8,0.5,5.4,1.4,7.8c0.8,1.9,1.8,3.6,3.1,5.1c0.3,0.3,0.6,0.6,0.9,0.9
		c3.1,2.9,7.1,4.3,12.1,4.4c5.3-0.1,9.5-1.8,12.7-5c1.6-1.7,2.9-3.6,3.7-5.9c0.8-2.3,1.2-4.8,1.2-7.5c0-5.4-1.6-9.8-4.7-13.2
		C113.3,17.2,109,15.5,103.5,15.4 M109.9,41.9c-1.4,2.1-3.5,3.2-6.3,3.3c-2.7,0-4.8-1.1-6.3-3.2c-1.5-2-2.2-4.8-2.2-8.2
		c0-3.3,0.7-6.1,2-8.1c1.4-2.1,3.5-3.1,6.4-3.2c2.7,0,4.9,1.1,6.3,3.1c1.5,2,2.2,4.8,2.2,8.2C112,37.1,111.3,39.8,109.9,41.9"/>
</g>
</svg>
