<?xml version="1.0" encoding="utf-8"?>
<!-- Generator: Adobe Illustrator 17.1.0, SVG Export Plug-In . SVG Version: 6.00 Build 0)  -->
<!DOCTYPE svg PUBLIC "-//W3C//DTD SVG 1.1//EN" "http://www.w3.org/Graphics/SVG/1.1/DTD/svg11.dtd">
<svg version="1.1" id="Layer_1" xmlns="http://www.w3.org/2000/svg" xmlns:xlink="http://www.w3.org/1999/xlink" x="0px" y="0px"
	 viewBox="0 367.7 107 106.4" enable-background="new 0 367.7 107 106.4" xml:space="preserve">
<g>
	<path fill-rule="evenodd" clip-rule="evenodd" fill="#FFFFFF" d="M99.3,447.4c-14.6,25.2-47,33.8-72.3,19.3
		c-25.3-14.5-34-46.7-19.4-71.9s47-33.8,72.3-19.3C105.3,390,113.9,422.2,99.3,447.4z M75.9,382.7c-21.2-12.2-48.4-5-60.7,16.2
		c-12.3,21.2-5,48.2,16.3,60.4c21.2,12.2,48.4,5,60.7-16.2C104.4,422,97.1,395,75.9,382.7z M55.4,422.6c0.5-0.8,0.4-1.8-0.3-2.5
		c-0.7-0.7-1.7-0.8-2.5-0.3l-6-6L78,396.5l0.7,0.6l-17.2,31.5L55.4,422.6z M49.4,414.4l5.4,5.4L74,400.7L49.4,414.4z M52.2,423
		c0.7,0.7,1.7,0.8,2.5,0.3l5.9,6l-31.4,17.2l-0.6-0.6l17.3-31.4l5.9,6C51.4,421.3,51.5,422.3,52.2,423z"/>
</g>
</svg>
