<?xml version="1.0" encoding="utf-8"?>
<!-- Generator: Adobe Illustrator 17.1.0, SVG Export Plug-In . SVG Version: 6.00 Build 0)  -->
<!DOCTYPE svg PUBLIC "-//W3C//DTD SVG 1.1//EN" "http://www.w3.org/Graphics/SVG/1.1/DTD/svg11.dtd">
<svg version="1.1" id="Layer_1" xmlns="http://www.w3.org/2000/svg" xmlns:xlink="http://www.w3.org/1999/xlink" x="0px" y="0px"
	 viewBox="0 367.7 107 106.4" enable-background="new 0 367.7 107 106.4" xml:space="preserve">
<g>
	<path fill-rule="evenodd" clip-rule="evenodd" fill="#3FA9EB" d="M99.4,447.3c-14.6,25.2-47.1,33.8-72.4,19.3
		C1.6,452-7,419.8,7.6,394.6s47.1-33.8,72.4-19.3C105.4,389.9,114,422.1,99.4,447.3z M75.9,382.6c-21.3-12.2-48.5-5-60.8,16.2
		s-5,48.3,16.3,60.5c21.3,12.2,48.5,5,60.8-16.2C104.5,421.9,97.2,394.8,75.9,382.6z M83.8,427.2H81c-0.9,7.5-5.5,14-12.1,18.1v6.4
		c0,1.1-0.9,1.9-1.9,1.9h-6.1c-1.1,0-1.9-0.9-1.9-1.9v-2.5c-2,0.4-4,0.6-6.1,0.6c-1.8,0-3.6-0.2-5.4-0.5v2.4c0,1.1-0.9,1.9-1.9,1.9
		h-6.1c-1.1,0-1.9-0.9-1.9-1.9v-5.9c-5.6-3.2-9.9-8.1-11.8-14h-3.5c-1.7,0-3.1-1.4-3.1-3.1v-10.3c0-1.7,1.4-3.1,3.1-3.1h4.2
		c1.8-4.1,4.7-7.6,8.4-10.3l0.9-9.9c0,0-0.1-0.8,0.8-1.2c1-0.4,1.7,0.5,1.7,0.5l6.7,5c1.8,5.3,6.9,9.2,12.8,9.2
		c4.3,0,8.1-2,10.6-5.1c6.5,3.8,11.2,10,12.4,17.2h3c1.7,0,3.1,1.4,3.1,3.1v0.4C86.9,425.8,85.5,427.2,83.8,427.2z M38.1,409.2
		c-0.7,0-1.3,0.2-1.9,0.4c1.7,0,3.1,1.4,3.1,3.1c0,1.7-1.4,3.1-3.1,3.1c-0.8,0-1.6-0.3-2.2-0.9c0.6,1.7,2.2,2.9,4.1,2.9
		c2.4,0,4.3-1.9,4.3-4.3S40.5,409.2,38.1,409.2z M57.8,405c-5.5,0-10-4.4-10-9.9c0-5.5,4.5-9.9,10-9.9c5.5,0,10,4.4,10,9.9
		C67.7,400.6,63.3,405,57.8,405z M61.3,398.1h-4c0.1-0.3,0.1-0.7,0.1-1.1c0-0.4,0.1-0.8,0.1-1.2H60v-1.9h-2.6v-1
		c0-0.4,0-0.7,0.1-0.9c0.1-0.2,0.2-0.4,0.3-0.6c0.1-0.1,0.3-0.2,0.5-0.3c0.2-0.1,0.4-0.1,0.7-0.1c0.3,0,0.6,0,0.8,0.1
		c0.2,0.1,0.4,0.1,0.7,0.2l0.6-1.8c-0.3-0.1-0.7-0.3-1-0.3c-0.4-0.1-0.7-0.1-1.2-0.1c-0.5,0-1,0.1-1.5,0.2c-0.5,0.1-0.8,0.3-1.2,0.7
		c-0.3,0.3-0.6,0.7-0.8,1.2c-0.2,0.5-0.3,1.1-0.3,1.9v0.8h-1.3v1.9h1.3c0,0.6-0.1,1.2-0.1,1.9c-0.1,0.7-0.2,1.5-0.4,2.3h6.5V398.1z"
		/>
</g>
</svg>
