<?xml version="1.0" encoding="utf-8"?>
<!-- Generator: Adobe Illustrator 17.1.0, SVG Export Plug-In . SVG Version: 6.00 Build 0)  -->
<!DOCTYPE svg PUBLIC "-//W3C//DTD SVG 1.1//EN" "http://www.w3.org/Graphics/SVG/1.1/DTD/svg11.dtd">
<svg version="1.1" id="Layer_1" xmlns="http://www.w3.org/2000/svg" xmlns:xlink="http://www.w3.org/1999/xlink" x="0px" y="0px"
	 viewBox="0 0 454.5 130.9" enable-background="new 0 0 454.5 130.9" xml:space="preserve">
<g>
	<path fill-rule="evenodd" clip-rule="evenodd" fill="#80CEFF" d="M418,130.9V5.6L450,0v130.9H418z M380,21.3l32-5.6v115.2h-32V21.3
		z M342,17l32-5.6v119.5h-32V17z M304,32.6l32-5.6v103.9h-32V32.6z M266,27.6l32-5.6v108.9h-32V27.6z M228,21.3l32-5.6v115.2h-32
		V21.3z M190,17l32-5.6v119.5h-32V17z M152,10.6l32-5.6v125.9h-32V10.6z M114,5.6L146,0v130.9h-32V5.6z M76,21.3l32-5.6v115.2H76
		V21.3z M38,17l32-5.6v119.5H38V17z M0,32.6l32-5.6v103.9H0V32.6z"/>
</g>
</svg>
