<?xml version="1.0" encoding="utf-8"?>
<!-- Generator: Adobe Illustrator 17.1.0, SVG Export Plug-In . SVG Version: 6.00 Build 0)  -->
<!DOCTYPE svg PUBLIC "-//W3C//DTD SVG 1.1//EN" "http://www.w3.org/Graphics/SVG/1.1/DTD/svg11.dtd">
<svg version="1.1" id="Layer_1" xmlns="http://www.w3.org/2000/svg" xmlns:xlink="http://www.w3.org/1999/xlink" x="0px" y="0px"
	 viewBox="0 367.7 107 106.4" enable-background="new 0 367.7 107 106.4" xml:space="preserve">
<g>
	<path fill-rule="evenodd" clip-rule="evenodd" fill="#FFFFFF" d="M99.6,447.3c-14.6,25.2-47,33.8-72.3,19.3
		C1.9,452-6.8,419.8,7.9,394.6c14.6-25.2,47-33.8,72.3-19.3C105.5,389.9,114.2,422.1,99.6,447.3z M76.1,382.6
		c-21.2-12.2-48.4-5-60.7,16.2s-5,48.3,16.3,60.5s48.4,5,60.7-16.2C104.6,421.9,97.3,394.8,76.1,382.6z M77.7,448.1v-48.4
		c1.6-0.3,3.2-0.5,4.6-0.7c8.8,11.2,10.4,27,2.8,40.1C83.1,442.6,80.6,445.6,77.7,448.1z M55.8,408.9c6.7-1,13-2,18.4-2.8v44.8
		c-5.5,3.7-11.8,5.8-18.4,6.2V408.9z M33.3,450.8v-44.3c6.5-1,12.9-2,19-2.9v53.4c-5.7-0.2-11.4-1.8-16.6-4.8
		C34.9,451.8,34.1,451.3,33.3,450.8z M18.1,414.7c3.8-0.6,7.7-1.2,11.6-1.8c0,0,0.1,0,0.1-0.1v35.3
		C20.2,439.7,15.9,426.9,18.1,414.7z"/>
</g>
</svg>
