<?xml version="1.0" encoding="utf-8"?>
<!-- Generator: Adobe Illustrator 17.1.0, SVG Export Plug-In . SVG Version: 6.00 Build 0)  -->
<!DOCTYPE svg PUBLIC "-//W3C//DTD SVG 1.1//EN" "http://www.w3.org/Graphics/SVG/1.1/DTD/svg11.dtd">
<svg version="1.1" id="Layer_1" xmlns="http://www.w3.org/2000/svg" xmlns:xlink="http://www.w3.org/1999/xlink" x="0px" y="0px"
	 viewBox="0 367.7 107 106.4" enable-background="new 0 367.7 107 106.4" xml:space="preserve">
<path fill="#80CEFF" d="M85.2,439.8c-2.1,3.5-4.6,6.5-7.5,9.1V400c1.6-0.2,3.2-0.5,4.7-0.7C91.2,410.6,92.9,426.6,85.2,439.8z
	 M74.1,451.6c-5.5,3.7-12,5.9-18.6,6.3v-48.7c6.8-1,13.1-2,18.6-2.9V451.6z M32.9,451.6v-44.7c6.5-1,13-2,19.2-2.9v54
	c-5.7-0.2-11.5-1.8-16.8-4.8C34.4,452.6,33.6,452.1,32.9,451.6z M17.5,415.1c3.9-0.6,7.8-1.2,11.7-1.8c0,0,0,0,0.1-0.1v35.7
	C19.6,440.4,15.2,427.5,17.5,415.1z"/>
<path fill="#FFFFFF" d="M99.8,447.6c-14.8,25.4-47.5,34.2-73.1,19.5C1.2,452.3-7.6,419.8,7.2,394.3c14.8-25.4,47.4-34.2,73.1-19.4
	C105.8,389.6,114.6,422.1,99.8,447.6z M76.1,382.2c-21.5-12.3-48.9-5-61.3,16.4s-5,48.7,16.5,61.1c21.5,12.3,48.9,5,61.3-16.4
	C104.9,421.9,97.5,394.6,76.1,382.2z"/>
</svg>
