<?xml version="1.0" encoding="utf-8"?>
<!-- Generator: Adobe Illustrator 17.1.0, SVG Export Plug-In . SVG Version: 6.00 Build 0)  -->
<!DOCTYPE svg PUBLIC "-//W3C//DTD SVG 1.1//EN" "http://www.w3.org/Graphics/SVG/1.1/DTD/svg11.dtd">
<svg version="1.1" id="Layer_1" xmlns="http://www.w3.org/2000/svg" xmlns:xlink="http://www.w3.org/1999/xlink" x="0px" y="0px"
	 viewBox="0 0 1273.6 227.7" enable-background="new 0 0 1273.6 227.7" xml:space="preserve">
<g>
	<g>
		<path fill="#80CEFF" d="M358.8,128.3l-52.5-78.8h-16.5v144.3h15.9V77.2l52.5,77.1h0.8L411.5,77v116.9h16.3V49.5h-16.5L358.8,128.3
			z M498.5,85c-32.1,0-55.6,25.6-55.6,55.7v0.4c0,30.1,23.3,55.3,55.2,55.3c32.1,0,55.8-25.6,55.8-55.7v-0.4
			C553.9,110.1,530.4,85,498.5,85z M537.6,141.1c0,22.5-16.1,41-39.1,41c-22.5,0-39.4-18.6-39.4-41.4v-0.4
			C459.1,117.8,475,99,498,99c22.5,0,39.6,18.8,39.6,41.6V141.1z M618.4,85c-18.3,0-29.5,9.3-36.5,20.8V87.3H566v106.6h15.9v-61
			c0-20,13.6-33.4,31.9-33.4c18.7,0,29.5,12.4,29.5,32.2v62.3h15.9v-66.2C659.2,102.3,644.1,85,618.4,85z M770.6,141.5
			c0-31.3-18.1-56.5-49.7-56.5c-29.5,0-51.1,24.7-51.1,55.7c0,33.2,23.9,55.7,53.2,55.7c20.2,0,33.2-8,43.9-20l-9.9-8.9
			c-8.7,9.1-19,15.1-33.6,15.1c-18.7,0-35.2-13-37.5-35.5h84.5C770.6,144.6,770.6,142.9,770.6,141.5z M685.9,134.3
			c2.3-20.6,16.3-35.9,34.6-35.9c21,0,32.1,16.5,34,35.9H685.9z M856.5,87.3l-34.2,88.9l-38.7-88.9h-17.5l48.4,106.2
			c-6.4,15.1-12.4,20-21.8,20c-6.8,0-11.5-1.2-16.7-3.9l-5.4,12.6c7.2,3.5,13.8,5.4,22.7,5.4c16.1,0,26.4-8,35.4-30.1l44.7-110.1
			H856.5z"/>
	</g>
</g>
<path fill="#FFFFFF" d="M1223.4,196.3c-16.7,0-27-7.6-34.4-16.5v14.4h-31.3V48.6l28.2-4.9h3.1v55.9c7.6-10.3,18.1-17.9,34.4-17.9
	c25.8,0,50.3,20.2,50.3,57.1v0.4C1273.6,176.1,1249.5,196.3,1223.4,196.3z M1242.3,138.8c0-18.3-12.4-30.5-27-30.5
	c-14.6,0-26.8,12.2-26.8,30.5v0.4c0,18.3,12.2,30.5,26.8,30.5c14.6,0,27-12,27-30.5V138.8z M1106.6,88.6l27.8-4.8h3.5v110.5h-31.3
	v-15.7c-7.2,9.3-16.5,17.7-32.3,17.7c-23.7,0-37.5-15.7-37.5-41V88.6l27.8-4.8h3.5v61.6c0,14.8,7,22.5,19,22.5s19.6-7.6,19.6-22.5
	V88.6z M982.7,136.3h-58.5v57.9h-31.7V54.9l28.6-5h3.1v57.1h58.5V55l29.2-5h2.6v144.3h-31.7V136.3z"/>
<path fill-rule="evenodd" clip-rule="evenodd" fill="#80CEFF" d="M182.3,154.2c-4.4,7.5-9.9,14-16.1,19.5V69c3.5-0.5,6.9-1.1,10-1.5
	C195.2,91.7,198.7,125.9,182.3,154.2z M158.6,179.5c-11.8,8-25.6,12.6-39.8,13.4V88.7c14.6-2.2,28.1-4.3,39.8-6.1V179.5z
	 M70.3,179.5V83.8c14-2.2,27.8-4.3,41-6.3V193c-12.3-0.5-24.6-3.8-36-10.3C73.6,181.6,71.9,180.6,70.3,179.5z M37.4,101.3
	c8.3-1.3,16.7-2.6,25.1-3.9c0.1,0,0.1-0.1,0.2-0.2v76.3C41.9,155.5,32.5,127.8,37.4,101.3z"/>
<path fill-rule="evenodd" clip-rule="evenodd" fill="#FFFFFF" d="M213.6,170.8C182,225.2,112,243.9,57.2,212.5
	C2.5,181-16.3,111.4,15.4,56.9C47,2.5,116.9-16.2,171.7,15.3C226.4,46.7,245.2,116.3,213.6,170.8z M162.8,30.9
	C116.9,4.5,58.1,20.2,31.6,66C5.1,111.8,20.8,170.3,66.8,196.7s104.7,10.7,131.2-35C224.5,115.9,208.7,57.4,162.8,30.9z"/>
</svg>
