<?xml version="1.0" encoding="utf-8"?>
<!-- Generator: Adobe Illustrator 17.1.0, SVG Export Plug-In . SVG Version: 6.00 Build 0)  -->
<!DOCTYPE svg PUBLIC "-//W3C//DTD SVG 1.1//EN" "http://www.w3.org/Graphics/SVG/1.1/DTD/svg11.dtd">
<svg version="1.1"
	 id="svg2" xmlns:cc="http://creativecommons.org/ns#" xmlns:dc="http://purl.org/dc/elements/1.1/" xmlns:rdf="http://www.w3.org/1999/02/22-rdf-syntax-ns#" xmlns:svg="http://www.w3.org/2000/svg" xmlns:inkscape="http://www.inkscape.org/namespaces/inkscape" xmlns:sodipodi="http://sodipodi.sourceforge.net/DTD/sodipodi-0.dtd" sodipodi:docname="2012May1_LBG_Q1_IMS.pdf" inkscape:version="0.48.0 r9654"
	 xmlns="http://www.w3.org/2000/svg" xmlns:xlink="http://www.w3.org/1999/xlink" x="0px" y="0px" viewBox="0 0 250 117.7"
	 enable-background="new 0 0 250 117.7" xml:space="preserve">
<sodipodi:namedview  id="namedview4" objecttolerance="10" inkscape:cx="14.306369" showgrid="false" gridtolerance="10" inkscape:cy="197.28782" fit-margin-top="5" inkscape:zoom="1" borderopacity="1" bordercolor="#666666" fit-margin-left="5" guidetolerance="10" pagecolor="#ffffff" inkscape:window-height="1058" inkscape:pageshadow="2" inkscape:window-x="54" inkscape:window-y="-8" inkscape:window-maximized="1" inkscape:current-layer="g10" inkscape:window-width="1858" inkscape:pageopacity="0" fit-margin-bottom="5" fit-margin-right="5">
	</sodipodi:namedview>
<g id="g10" transform="matrix(1.25,0,0,-1.25,-426.74483,189.47323)" inkscape:label="2012May1_LBG_Q1_IMS" inkscape:groupmode="layer">
	<text transform="matrix(0.8 0 0 -0.8 56.1029 673.8223)" fill="#0A8137" font-family="'ArialMT'" font-size="53.75">Q</text>
	<text transform="matrix(0.8 0 0 -0.8 91.879 673.8223)" fill="#0A8137" font-family="'ArialMT'" font-size="53.75">1</text>
	<text transform="matrix(0.8 0 0 -0.8 115.7873 673.8223)" fill="#0A8137" font-family="'ArialMT'" font-size="53.75"> </text>
	<text transform="matrix(0.8 0 0 -0.8 127.7412 673.8223)" fill="#0A8137" font-family="'ArialMT'" font-size="53.75">2</text>
	<text transform="matrix(0.8 0 0 -0.8 151.649 673.8223)" fill="#0A8137" font-family="'ArialMT'" font-size="53.75">0</text>
	<text transform="matrix(0.8 0 0 -0.8 175.5568 673.8223)" fill="#0A8137" font-family="'ArialMT'" font-size="53.75">1</text>
	<text transform="matrix(0.8 0 0 -0.8 199.465 673.8223)" fill="#0A8137" font-family="'ArialMT'" font-size="53.75">2</text>
	<text transform="matrix(0.8 0 0 -0.8 56.1025 615.0215)" fill="#0A8137" font-family="'ArialMT'" font-size="41.25">I</text>
	<text transform="matrix(0.8 0 0 -0.8 65.2763 615.0215)" fill="#0A8137" font-family="'ArialMT'" font-size="41.25">n</text>
	<text transform="matrix(0.8 0 0 -0.8 83.6248 615.0215)" fill="#0A8137" font-family="'ArialMT'" font-size="41.25">t</text>
	<text transform="matrix(0.8 0 0 -0.8 95.8345 615.0215)" fill="#0A8137" font-family="'ArialMT'" font-size="41.25">e</text>
	<text transform="matrix(0.8 0 0 -0.8 114.1826 615.0215)" fill="#0A8137" font-family="'ArialMT'" font-size="41.25">r</text>
	<text transform="matrix(0.8 0 0 -0.8 126.3927 615.0215)" fill="#0A8137" font-family="'ArialMT'" font-size="41.25">i</text>
	<text transform="matrix(0.8 0 0 -0.8 134.3123 615.0215)" fill="#0A8137" font-family="'ArialMT'" font-size="41.25">m</text>
	<text transform="matrix(0.8 0 0 -0.8 162.4287 615.0215)" fill="#0A8137" font-family="'ArialMT'" font-size="41.25"> </text>
	<text transform="matrix(0.8 0 0 -0.8 171.6025 615.0215)" fill="#0A8137" font-family="'ArialMT'" font-size="41.25">M</text>
	<text transform="matrix(0.8 0 0 -0.8 201.5005 615.0215)" fill="#0A8137" font-family="'ArialMT'" font-size="41.25">a</text>
	<text transform="matrix(0.8 0 0 -0.8 218.6275 615.0215)" fill="#0A8137" font-family="'ArialMT'" font-size="41.25">n</text>
	<text transform="matrix(0.8 0 0 -0.8 236.9756 615.0215)" fill="#0A8137" font-family="'ArialMT'" font-size="41.25">a</text>
	<text transform="matrix(0.8 0 0 -0.8 254.1025 615.0215)" fill="#0A8137" font-family="'ArialMT'" font-size="41.25">g</text>
	<text transform="matrix(0.8 0 0 -0.8 274.2654 615.0215)" fill="#0A8137" font-family="'ArialMT'" font-size="41.25">e</text>
	<text transform="matrix(0.8 0 0 -0.8 292.6135 615.0215)" fill="#0A8137" font-family="'ArialMT'" font-size="41.25">m</text>
	<text transform="matrix(0.8 0 0 -0.8 320.7295 615.0215)" fill="#0A8137" font-family="'ArialMT'" font-size="41.25">e</text>
	<text transform="matrix(0.8 0 0 -0.8 339.0775 615.0215)" fill="#0A8137" font-family="'ArialMT'" font-size="41.25">n</text>
	<text transform="matrix(0.8 0 0 -0.8 357.4255 615.0215)" fill="#0A8137" font-family="'ArialMT'" font-size="41.25">t</text>
	<text transform="matrix(0.8 0 0 -0.8 369.6358 615.0215)" fill="#0A8137" font-family="'ArialMT'" font-size="41.25"> </text>
	<text transform="matrix(0.8 0 0 -0.8 378.8095 615.0215)" fill="#0A8137" font-family="'ArialMT'" font-size="41.25">S</text>
	<text transform="matrix(0.8 0 0 -0.8 397.1577 615.0215)" fill="#0A8137" font-family="'ArialMT'" font-size="41.25">t</text>
	<text transform="matrix(0.8 0 0 -0.8 409.3678 615.0215)" fill="#0A8137" font-family="'ArialMT'" font-size="41.25">a</text>
	<text transform="matrix(0.8 0 0 -0.8 426.4943 615.0215)" fill="#0A8137" font-family="'ArialMT'" font-size="41.25">t</text>
	<text transform="matrix(0.8 0 0 -0.8 438.7045 615.0215)" fill="#0A8137" font-family="'ArialMT'" font-size="41.25">e</text>
	<text transform="matrix(0.8 0 0 -0.8 457.0526 615.0215)" fill="#0A8137" font-family="'ArialMT'" font-size="41.25">m</text>
	<text transform="matrix(0.8 0 0 -0.8 485.1685 615.0215)" fill="#0A8137" font-family="'ArialMT'" font-size="41.25">e</text>
	<text transform="matrix(0.8 0 0 -0.8 503.5166 615.0215)" fill="#0A8137" font-family="'ArialMT'" font-size="41.25">n</text>
	<text transform="matrix(0.8 0 0 -0.8 521.8647 615.0215)" fill="#0A8137" font-family="'ArialMT'" font-size="41.25">t</text>
	<g id="g20" transform="matrix(1.297376,0,0,1.297376,-159.79699,-18.261798)">
		<g>
			<defs>
				<rect id="SVGID_1_" x="-185" y="-261.7" width="965.4" height="1365.3"/>
			</defs>
			<clipPath id="SVGID_2_">
				<use xlink:href="#SVGID_1_"  overflow="visible"/>
			</clipPath>
			<g id="g22" clip-path="url(#SVGID_2_)">
				<g id="g28" transform="translate(534.8477,92.1836)">
					<path id="path30" inkscape:connector-curvature="0" fill="#231F20" d="M0,0c1.2-0.9,2.5-1.6,2.5-3c0-0.4-0.5-0.8-1.7-0.8
						c-0.9,0-1.9,0.2-2.3,0.9c-0.4,0.5,0.2,1.2-0.2,1.6C-2-0.9-2.5-1.1-2.9-0.9c-0.5,0.2-0.5,0.5-0.8,1.1c-0.3,0.7-1.4,2-2.8,3.3
						c-1.1,1.1-2.3,1.7-2.8,1.6c-0.4,0-0.5,0-0.9,0c-0.9,0-1.8-0.9-3.1-1.5c-0.9-0.4-1.5-0.7-2.1-0.7l-0.2-0.2l1.2,0
						c1.2,0,2.7,0.2,3.8,0.2c1.2,0,1.8-1.1,2.2-2.2C-7.4-1.6-6-4.9-4.4-7.6C-3.7-8.8-3-9.7-3-11.2c0-0.5,0-1.2-0.7-1.2
						c-0.9,0-3.2,0.9-3.2,2c0,0.8,0.6,1.1,0.6,1.9C-6.3-8-7-8.1-7.2-7.7c-0.6,2.4-1.3,4.8-2.6,6.3c-0.7,0.7-0.8,1.1-1.5,1.1
						c-0.4,0-0.7-0.1-1.1-0.2c-1.9-0.7-4.4-2.8-7.5-3.7c-1.2-0.4-1.4,0.3-2.6,0.1h0.1c-1-0.2-1.8-0.8-3.1-1.2
						c-1.9-0.5-5.1-0.8-7.7-0.5c-1.8,0.2-4.2,0.6-5.3,0.6c-0.8-2.3-2.5-5.2-4.9-6.4c-1.3-0.6-1.7-1.4-1.3-2.9c0.5-1.8,2.1-3.2,3-4.8
						c0.8-1.4,2.1-3.5,3.4-4.2c1.4-0.7,2.2-1.7,2.2-2.6c0-0.4-0.2-0.7-0.6-0.7h-2.7c-0.4,0-0.6,0.2-0.7,0.4c-0.4,0.7-0.1,1.4-0.6,2
						c-0.4,0.5-0.7,0.3-1.1,0.7c-0.8,0.8-0.2,1.2-0.8,2.2c-1.7,2.7-2.5,3.4-3.9,5.3c-0.8,1-1.8,1.5-1.8,2.9c0,1.6,1.6,1.9,1.6,3.6
						c-1.1-0.8-2.3-1.4-4.2-1.7c-0.2,0-0.9-0.5-1.2-0.9c-0.7-0.7-0.9-1.3-1-2.3c-0.2-2.2-0.7-4.5-0.4-6.7c0.4-1.4,0.6-1.9,1.8-2.7
						c0.7-0.5,1.6-1.2,1.7-2.2c0-0.3-0.1-0.6-0.5-0.6h-2.9c-0.3,0-0.5,0.2-0.6,0.4c-0.3,0.6-0.1,1-0.2,1.6c-0.3,1.4-1.8,1.3-1.8,2.7
						c0,0.4,0.2,0.9,0.3,1.8c0.1,1.9,0.7,4.9,0.1,8.6c-0.2,2.1,2,2.2,3.1,4.1c0.7,1.1,0.5,0.6,0.9,1.4c0.4,0.8,0.3,1.4,0.3,1.9
						c0,0.6-0.6,1.9-0.2,4.6c0.2,1.2,0.7,2.4,1.5,3.4c0,0,0,0.2-0.2,0.2c-1.2-0.1-1.2,0.2-1.9,0.2c-0.7,0-1.3-0.6-1.4-0.9
						c-0.4,0.2-0.5,0.6-0.5,0.8c0,0.4,0.1,0.8,0.5,1.2c0.2,0.2,0,0.2-0.2,0.2c-0.9,0-1.8-1.1-2-1.9c-0.5,0.1-0.6,0.8-0.8,0.8
						c-0.2,0-0.4-0.4-0.4-0.7c0-2.6,4.3-3.2,4.3-6.7c0-4-4.8-3.2-4.8-4.6c0-0.3,0.2-0.5,0.6-0.7c-0.2-0.4-0.6-0.5-1-0.5
						c-1.1,0-1.9,0.8-1.9,1.8c0,2.2,2.9,2.2,2.9,3.9c0,0.8-0.5,1-0.9,1.4c-2.8,2-4.4,3.9-4.4,7.2c0,3.5,2.4,6.2,5.6,6.2
						c4.6,0,4.7-5.3,8.9-5.8c1.6,1.1,3.4,1.7,5.2,1.7c2.7,0,3.9-0.7,6.8-0.7c1.2,0,3.1,0.3,5.4,1.9c0.9,0.6,1.2,0.7,2,1.4
						c1.8,1.6,3.5,4.6,3.5,6.8v-0.1c0,0.7-0.2,1.1-0.5,1.1c-1,0-1.9-0.9-2.8-1.9c-0.6-0.7,0.3-0.9-1.1-1.7c-0.5-0.2-1.1,0.2-1.6,0.2
						c-1.1,0-1.6,1.3-1.6,2.5c0,0.6,0.5,0.7,0.7,1.3c0.6,1.1,0.5,1.5,1.1,2.6c0.3,0.7,0.9,1.2,0.9,1.8c0,0.2-0.2,0.3-0.2,0.5
						c0,1.1,1.5,1.9,1.5,3c0,0.6-0.7,0.9-0.9,1.4c-0.2,0.5,0,0.6,0,0.6c0,0.1,0.1,0.1,0.2,0.1c0.6,0,0.8-0.6,1.4-0.9
						c0,0.7-0.2,0.9-0.2,1.4c0,0.3,0,0.7,0.2,0.7c0.4,0,0.3-0.5,0.7-0.7c0.4-0.3,0.8-0.3,1.2-0.6c0.6-0.4,0.9-1,1.1-1
						c0.6-0.1,0.7,0.6,0.5,1c0.7,0,1.3-0.5,2.2-0.5c1.4,0,1.8-0.4,2.1-0.6c0.9-0.7,1-1.3,2-1.3c0.5,0,0.7,0.4,0.9,0.6
						c0.7-0.5,0.7-1.7,0-2.8c0.3-0.9,1.5-0.9,2.1-1.4c0.6-0.4,0.5-0.6,0.9-0.9c0.3-0.2,0.6-0.2,0.9,0c0.3-1.2-0.7-2.2-1.9-2.3
						c0-1.5,1.6-2.4,2.3-2.8c-0.4-0.9-1.2-1.2-1.8-1.4c0.2-0.9,1.2-2.2,0.7-3.4c-0.5,0.2-1.1,0-1.1-0.7c0-0.7,0.9-1.1,0-1.7
						C-16,9.1-16,8.5-15.2,7.9c1.1,0.3,2.1,0.2,3.3,0.2c0.7,0,1.7,0.2,2.4,0.2c1.2,0,2-0.5,2.9-1.5C-4.4,4.4-2.3,1.8,0,0"/>
				</g>
				<g id="g32" transform="translate(473.8047,98.7617)">
					<path id="path34" inkscape:connector-curvature="0" fill="#656263" d="M0,0c0.5,0,1.4,2.7,3.2,2.7c0.5,0,0.7-0.2,0.7-0.4
						c0-0.4-0.6-0.7-0.6-1.2c0-0.1,0-0.2,0.2-0.2c0.5,0,0.8,1,2.6,1c0.5,0,0.9,0,1.4-0.2c0.2,0,0.6-0.2,0.5,0.3
						C7.5,3.3,6.1,4.5,4.1,4.5s-4-1.8-4.3-3.9C-0.2,0.2-0.2,0,0,0"/>
				</g>
				<g id="g36" transform="translate(507.9453,115.709)">
					<path id="path38" inkscape:connector-curvature="0" fill="#656263" d="M0,0c-0.5,0.2-0.6,0.5-0.5,1.2c0.1,0.7,0.2,1-0.2,1.1
						c-0.3,0.1-0.7-0.1-1-0.5c-0.3-0.5-0.9-1-1-1.4c-0.2-0.6,0.5-0.5,0-1.4c-0.9-1.6-1.1-1.9-1.5-3C-4.5-5.3-4.8-5.5-5-5.8
						C-5.2-6.2-4.6-6.2-4-6c0.7,0.2,0.7-0.6,0.5-1.2c-0.2-0.4,0-0.6,0.5-0.1C-2.4-6.9-3.2-6.5-3-5.2c0.2,1.2,0.5,1.8,1.2,3
						c0.6,1,1.2,1.8,2.2,1.4C0.8-1,0.6-0.2,0,0"/>
				</g>
				<g id="g40" transform="translate(530.8174,80.7813)">
					<path id="path42" inkscape:connector-curvature="0" fill="#656263" d="M0,0c0.2,0,0.2,0.3,0.2,0.5c0,0.6-0.3,1.4-0.8,1.8
						c-0.1-0.9-0.5-1.4-0.5-1.8C-1.1,0.2-0.3,0,0,0"/>
				</g>
				<g id="g44" transform="translate(535.916,89.0566)">
					<path id="path46" inkscape:connector-curvature="0" fill="#656263" d="M0,0c0.3,0,0.8,0.1,0.8,0.4c0,0.5-0.7,1.4-1.4,1.6
						C-0.1,1.1-0.6,0,0,0"/>
				</g>
				<g id="g48" transform="translate(513.3369,100.2832)">
					<path id="path50" inkscape:connector-curvature="0" fill="#656263" d="M0,0c4.6-2.1,4.4-6,4.8-5.1c0.2,0.4,0.8,2.3-0.9,4.2
						C2.6,0.6,2.1,0.2,2.6,1.5c2,4.9,3.3,12.3-2.8,14.9c-0.7,0.3-1.3,0.3-1.3,0.2c0-0.1,0.7-0.3,1.4-0.9c4-2.7,2.8-10-0.9-13.5
						C-2.1,1-1.5,0.7,0,0"/>
				</g>
				<g id="g52" transform="translate(497.4531,66.1855)">
					<path id="path54" inkscape:connector-curvature="0" fill="#656263" d="M0,0c0.3,0,0.2,0.5,0,0.7c-0.3,0.5-0.8,0.8-1.3,1
						C-1.1,1.2-1.1,0-0.6,0H0"/>
				</g>
				<g id="g56" transform="translate(483.4268,66.1855)">
					<path id="path58" inkscape:connector-curvature="0" fill="#656263" d="M0,0c0.3,0,0.1,0.5,0,0.7c-0.3,0.5-0.9,0.8-1.3,1
						C-1.2,1.2-1.2,0-0.7,0H0"/>
				</g>
				<path id="path64" inkscape:connector-curvature="0" fill="#0A8137" d="M390.8,61.4h130v2.2h-130V61.4z"/>
				<g id="g60" transform="translate(500.4189,94.0332)">
					<path id="path62" inkscape:connector-curvature="0" fill="#656263" d="M0,0c2.6,0.3,3,0.9,3.4,2.8c0.2,0.9,0.9,1.9,1.4,2.5
						C5.2,5.7,5.6,6,6,6.6C6.1,6.9,6.2,7.1,6,7C5.7,6.8,4.8,6.2,4.4,5.9C2.6,4.6-0.1,4-1.2,4c-2.3,0-4.4,0.7-6.5,0.7
						c-6.4,0-8.8-5-8.5-7.9c0-0.5,0.1-0.5,0.3-0.5c0.5,0,0.8,1.7,2.4,3.2C-11.1,1.8-8.6,3-5,3c2.6,0,3.7-0.9,3.7-1.2
						c0-0.7-1.1-0.7-1-1.4C-2.3,0.3-1.7-0.2,0,0"/>
				</g>
				<g id="g66" transform="translate(405.65587,106.55954)">
					<path id="path68" inkscape:connector-curvature="0" fill="#231F20" d="M0,0l1.5-4h-3.1L0,0z M-11.4,0.6c0.8,0,1.6-0.4,1.6-1.3
						c0-0.9-0.6-1.4-1.6-1.4h-2.2v2.7C-13.5,0.6-11.4,0.6-11.4,0.6z M0.4-17.8c1.1,0,1.8-0.5,1.8-1.6c0-1-0.7-1.6-1.7-1.6h-1.8v3.1
						C-1.3-17.8,0.4-17.8,0.4-17.8z M37.9-17.8c1.2,0,1.9-0.7,1.9-1.7c0-1-0.8-1.7-2-1.7h-1.5v3.4C36.3-17.8,37.9-17.8,37.9-17.8z
						 M-11.1-4.1c1,0,1.7-0.6,1.7-1.4c0-1.2-1.1-1.5-2.1-1.5h-2v3C-13.5-4.1-11.1-4.1-11.1-4.1z M33.5-9.2h2.3v12h-2.3V-9.2z
						 M31.9,18.9c2.2,0,3.8-1.6,3.8-3.8c0-2.2-1.6-3.8-3.8-3.8h-1.6v7.6C30.3,18.9,31.9,18.9,31.9,18.9z M-15.7,21.1v-12h7.6v2.2
						h-5.3v9.7C-13.4,21.1-15.7,21.1-15.7,21.1z M-6.1,21.1v-12h7.7v2.2h-5.3v9.7H-6.1z M23.9,21.1l-3-5.2l-3.2,5.2h-2.7l4.7-7.2
						l-2.9-4.8h2.6l7.2,12C26.5,21.1,23.9,21.1,23.9,21.1z M8.4,19.1c2.1,0,3.8-1.7,3.8-3.9c0-2.3-1.7-4-3.8-4c-2.1,0-3.8,1.7-3.8,4
						C4.5,17.3,6.3,19.1,8.4,19.1 M12.8-17.7c2.1,0,3.8-1.7,3.8-3.9c0-2.3-1.7-4-3.8-4c-2.1,0-3.8,1.7-3.8,4
						C8.9-19.4,10.7-17.7,12.8-17.7 M39.9,17.8c0-1.6,1-2.8,3.2-3.4c1.3-0.4,2.4-0.8,2.4-1.8c0-1-1-1.4-1.9-1.4
						c-1.2,0-2.4,0.5-3.5,1.1V10C40.9,9.5,42.2,9,43.7,9c2,0,4.1,1.3,4.1,3.6c0,2.3-1.8,3.1-3.3,3.6c-2,0.6-2.4,1-2.4,1.6
						c0,0.8,0.8,1.2,1.9,1.2c1.1,0,2.1-0.4,3-0.8v2.2c-1,0.5-2,0.7-3,0.7C41.6,21.2,39.9,19.9,39.9,17.8 M52.3-3.2
						c0-3.7,2.9-6.1,6.4-6.1c1,0,2.1,0.2,3.2,0.5v6.1h-2.2v-4.4c-0.2,0-0.7-0.1-0.9-0.1c-2.4,0-4.1,1.7-4.1,4c0,2.4,1.7,3.9,4.2,3.9
						c1.1,0,1.9-0.2,2.8-0.5v2.2c-0.7,0.2-1.7,0.5-2.8,0.5C55.2,2.9,52.3,0.4,52.3-3.2 M-16.3-21.6c0-3.7,2.9-6.1,6.4-6.1
						c1.1,0,2.1,0.2,3.2,0.5v6.1h-2.2v-4.4c-0.2,0-0.7-0.1-0.9-0.1c-2.4,0-4.1,1.7-4.1,4c0,2.4,1.7,3.9,4.2,3.9
						c1.1,0,1.9-0.2,2.8-0.5v2.2c-0.7,0.2-1.7,0.5-2.8,0.5C-13.4-15.5-16.3-18-16.3-21.6 M28.7-15.6v-7.5c0-1.4-1-2.4-2.4-2.4
						c-1.4,0-2.5,1-2.5,2.4v7.5h-2.3v-7.6c0-2.7,2-4.5,4.7-4.5c2.7,0,4.7,1.8,4.7,4.5v7.6H28.7z M24.2,2.7h-2.3v-12h2.3v5.6l4.9-5.6
						h3l-5.3,6.1l5,5.9H29l-4.8-5.7C24.2-2.9,24.2,2.7,24.2,2.7z M34-15.6v-11.9h2.2v4.1h1.6c2.4,0,4.2,1.5,4.2,3.9
						c0,2.3-1.8,3.9-4.1,3.9C38-15.6,34-15.6,34-15.6z M3.5-9.2H6l-4.9,12H-1L-6-9.2h2.4l1.2,3.1h4.7C2.3-6.1,3.5-9.2,3.5-9.2z
						 M47.6,2.7v-7.9l-6.3,7.9h-1.9v-12h2.3V-1l6.6-8.3h1.6v12H47.6z M16.2,2.7v-7.9L9.9,2.7H7.9v-12h2.3V-1l6.6-8.3h1.6v12H16.2z
						 M-3.6-15.6v-11.9h2.3v4.5h1.4l2.5-4.5h2.6l-2.9,4.9c1.3,0.6,2.2,1.8,2.2,3.3c0,2.4-1.7,3.7-4,3.7C0.5-15.6-3.6-15.6-3.6-15.6z
						 M-15.7,2.7v-12h4.4c2.7,0,4.3,1.3,4.3,3.6c0,1.2-0.6,2.1-1.7,2.8c0.7,0.5,1.3,1.3,1.3,2.3c0,2-1.5,3.3-3.7,3.3
						C-11.2,2.7-15.7,2.7-15.7,2.7z M28,21.1v-12h3.8c3.4,0,6.1,2.6,6.1,6c0,3.3-2.7,6-6.1,6H28z M2.2,15.2C2.2,11.7,4.9,9,8.4,9
						c3.4,0,6.2,2.7,6.2,6.2c0,3.4-2.8,6.1-6.2,6.1C5,21.2,2.2,18.5,2.2,15.2 M6.6-21.6c0-3.4,2.8-6.2,6.2-6.2
						c3.4,0,6.2,2.7,6.2,6.2c0,3.4-2.8,6.1-6.2,6.1C9.4-15.5,6.6-18.2,6.6-21.6"/>
				</g>
			</g>
		</g>
	</g>
</g>
</svg>
