<?xml version="1.0" encoding="utf-8"?>
<!-- Generator: Adobe Illustrator 17.1.0, SVG Export Plug-In . SVG Version: 6.00 Build 0)  -->
<!DOCTYPE svg PUBLIC "-//W3C//DTD SVG 1.1//EN" "http://www.w3.org/Graphics/SVG/1.1/DTD/svg11.dtd">
<svg version="1.1" id="Layer_1" xmlns="http://www.w3.org/2000/svg" xmlns:xlink="http://www.w3.org/1999/xlink" x="0px" y="0px"
	 viewBox="0 0 221.3 187" enable-background="new 0 0 221.3 187" xml:space="preserve">
<g transform="translate(123.0471,607.02)">
	<path fill="#8499A6" d="M-61.7-448.1c0,0,0,18,0,18c0,2.3-1.9,4.3-4.5,4.3h-2.4v0.9H-48v-0.9h-2.4c-2.5,0-4.5-2-4.5-4.3v-18.3
		v-21.9c0-2.2,1.9-4.3,4.5-4.3h2.4v-0.9h-20.7v0.9h2.4c2.6,0,4.5,2.1,4.5,4.3v19.6h-24.5v-19.6c0-2.2,2-4.3,4.5-4.3h2.4v-0.9H-100
		v0.9h2.4c2.6,0,4.5,2.1,4.5,4.3v21.9v18.3c0,2.2-2,4.3-4.5,4.3h-2.4v0.9h20.7v-0.9h-2.4c-2.5,0-4.5-2-4.5-4.3c0,0,0-18,0-18
		C-86.2-448.1-61.7-448.1-61.7-448.1z"/>
</g>
<g transform="translate(144.26221,602.7139)">
	<path fill="#8499A6" d="M-33.7-433.8c0.2,3-1.7,7.5-4.2,9.8c-2.5,2.2-6,4.1-10.6,4.1c-5.3,0-9.9-2.8-11.6-3.5
		c-1-0.4-2.3-0.3-3.1,0.1c-0.9,0.6-1.5,1.5-1.7,3.2h-0.8v-17.5h0.8c0.7,5.4,3.2,8.6,4.8,10.4c2.6,2.9,7.4,4.6,12,3.9
		c3.7-0.6,7.7-4.6,7.3-9.6c-0.2-1.8-0.5-4.4-4.3-6.8c-2.3-1.5-5.7-3.7-8.8-5.8c-4-2.6-7.6-5.5-8.6-6.6c-1.3-1.5-3-3.7-3-7.2
		c0-3,1.1-6.4,3.5-8.6c2.4-2.3,5.7-4,10.3-4c4.7,0,8.2,2.5,9.4,3s2.5,0.4,3.3,0c0.7-0.4,1.2-1.1,1.5-2.8h0.8v16.6h-0.8
		c-0.7-5.4-3-9.4-4.7-10.9c-1.6-1.5-4.8-3.5-9.6-2.6c-4.6,0.9-6.8,2.9-7.2,6.6c-0.3,2.8,1.2,4.5,2.1,5.5c1.8,2.1,13,8.5,18.1,12.9
		C-36-441.2-34-438.5-33.7-433.8"/>
</g>
<g transform="translate(151.36369,598.2459)">
	<path fill="#8499A6" d="M-24.3-418.9c3.5,1.1,10.2,1.9,14.8-1.4c5.6-4,6.7-13.7-1.1-18.8c-3.2-2-11.1-1.9-13.7-1.3
		C-24.3-440.5-24.3-418.9-24.3-418.9z M-24.3-443.3c2.5,0.6,9.8,0.8,12.6-1c4.4-2.8,6-7.3,5.2-11.3c-0.5-2.4-1.8-4.6-4-6.2
		c-4.3-3-10.6-2.6-13.8-1.6C-24.3-463.4-24.3-443.3-24.3-443.3z M-8-441.9c9,3.1,11.6,9.5,9.9,16c-2,7.7-10.7,9.3-13.5,9.6
		c-1.3,0.2-4.5,0.2-7.7,0.2c-5.7,0-13,0-18.8,0v-0.9h3c1.9,0,4.1-1.6,4.1-4v-40.4c0-2.4-2.2-4-4-4h-3v-0.9c5.1,0,12.6,0,18,0
		c4.3,0,6.7,0.4,8.2,0.7c2.6,0.5,10,2.7,11.8,9.6C1.2-450.6-1.5-443.8-8-441.9"/>
</g>
<g transform="translate(183.07919,618.4167)">
	<path fill="#8499A6" d="M17.6-485.9l0.7,17.1l-1,0c-0.5-4.3-2.1-7.4-4.2-9.4c-0.6-0.6-1.7-1.7-3.3-2.7c-2.7-1.7-6.7-3.2-11.5-2.4
		c-7.2,1.3-10.8,6-12.7,10.6c-2.3,5.6-3.7,15.2,0.1,23.3c3.1,6.6,9.1,9.3,13.8,10c3.9,0.6,12.7,0.4,19.4-8.6l1.1,0.7
		c-5.2,7.3-12.1,12-19.9,11.9c-10.1-0.1-16.4-5.6-19.3-8.9c-3-3.5-5.4-10.1-5.4-15.8c0-5.1,1.1-10.8,2.9-14.1
		c3.2-5.7,9.7-11.4,18.4-12.2c6.5-0.6,10.8,0.6,14.4,2.7c1.8,1,2.8,1.2,3.8,0.7c1-0.4,1.8-1.3,1.8-2.9
		C16.7-485.9,17.6-485.9,17.6-485.9z"/>
</g>
<g transform="translate(190.5751,607.89571)">
	<path fill="#8499A6" d="M-184.6-550.1l52.3,52.3v-104.6C-132.3-602.4-184.6-550.1-184.6-550.1z"/>
</g>
<g transform="translate(201.4597,597.0144)">
	<path fill="#8499A6" d="M-143.2-486.9h104.6l-52.3-52.3L-143.2-486.9z"/>
</g>
<g transform="translate(212.3421,607.8961)">
	<path fill="#8499A6" d="M-101.8-550.1l52.3-52.3h-104.6C-154.1-602.4-101.8-550.1-101.8-550.1z"/>
</g>
<g transform="translate(223.2254,618.7787)">
	<path fill="#8499A6" d="M-60.3-613.2v104.6L-8-560.9L-60.3-613.2z"/>
</g>
</svg>
