<?xml version="1.0" encoding="utf-8"?>
<!-- Generator: Adobe Illustrator 17.1.0, SVG Export Plug-In . SVG Version: 6.00 Build 0)  -->
<!DOCTYPE svg PUBLIC "-//W3C//DTD SVG 1.1//EN" "http://www.w3.org/Graphics/SVG/1.1/DTD/svg11.dtd">
<svg version="1.1" id="Layer_1" xmlns="http://www.w3.org/2000/svg" xmlns:xlink="http://www.w3.org/1999/xlink" x="0px" y="0px"
	 viewBox="0 367.7 107 106.4" enable-background="new 0 367.7 107 106.4" xml:space="preserve">
<g>
	<path fill-rule="evenodd" clip-rule="evenodd" fill="#FFFFFF" d="M99.3,447.1c-14.6,25.2-47.1,33.8-72.4,19.3
		c-25.4-14.6-34-46.8-19.4-72s47.1-33.8,72.4-19.3C105.3,389.7,114,421.9,99.3,447.1z M75.8,382.4c-21.3-12.2-48.5-5-60.8,16.2
		s-5,48.3,16.3,60.5c21.3,12.2,48.5,5,60.8-16.2C104.4,421.7,97.1,394.6,75.8,382.4z M58.2,456.6c0.5-0.9,1-1.9,1.5-2.6
		c2.7-4.7,3.6-7.9,3.9-11.8h-7c-1.9,3.2-6.7,8.1-10,11.3c-0.6,0.6-1.6,1.5-2.6,2.2c-3-0.8-5.8-2-8.6-3.6
		c-6.1-3.5-10.8-8.5-13.9-14.3c12.5-8,18.9-19.4,19.8-26.3c0.3-2.5,0.1-5-0.5-5.9c-2.4-4.2-3.2-4.7-3.5-4.7
		c0.6-0.3,2.1-0.3,19.3,6.9c4.4,1.8,23.2,11,32.1,22.1c-0.8,3.1-2,6.2-3.7,9.1C79.1,449,69,455.2,58.2,456.6z M38.7,401.4
		c-1.1-0.4-0.5-0.1-0.2,0.1h0.4C38.8,401.5,38.7,401.5,38.7,401.4z M40.4,402.1h-0.7c0.4,0.2,0.7,0.4,1.1,0.6h0.8
		C41.1,402.4,40.7,402.2,40.4,402.1z M42.7,403.3h-0.9c0.7,0.4,1.3,0.8,1.9,1.2h1.1C44.1,404.1,43.4,403.7,42.7,403.3z M45.7,405
		h-1.3c1.4,1,2.3,1.8,2.3,1.8h1.8C48.5,406.8,47.4,406.1,45.7,405z M49.9,407.8h-2.2c0.8,0.5,1.6,1.1,2.3,1.8h2.1
		C51.4,409,50.7,408.4,49.9,407.8z M53.5,410.8h-2.1c0.6,0.6,1.1,1.2,1.6,1.8h2.2C54.6,412,54.1,411.4,53.5,410.8z M57.2,415h-2.5
		c0.8,1.3,1.6,3.3,2.2,4.7h3C59.1,418.2,58.2,416.3,57.2,415z M62.3,424.4h-3.9c0.5,2.8,0.5,7,0,10.1h5.5
		C63.9,431.5,63.3,427.3,62.3,424.4z"/>
</g>
</svg>
