<?xml version="1.0" encoding="utf-8"?>
<!-- Generator: Adobe Illustrator 17.1.0, SVG Export Plug-In . SVG Version: 6.00 Build 0)  -->
<!DOCTYPE svg PUBLIC "-//W3C//DTD SVG 1.1//EN" "http://www.w3.org/Graphics/SVG/1.1/DTD/svg11.dtd">
<svg version="1.1" id="Layer_1" xmlns="http://www.w3.org/2000/svg" xmlns:xlink="http://www.w3.org/1999/xlink" x="0px" y="0px"
	 viewBox="0 367.7 107 106.4" enable-background="new 0 367.7 107 106.4" xml:space="preserve">
<g>
	<path fill-rule="evenodd" clip-rule="evenodd" fill="#FFFFFF" d="M99.4,447c-14.6,25.2-47,33.8-72.4,19.3
		c-25.3-14.5-34-46.8-19.4-72s47-33.8,72.4-19.3C105.3,389.6,114,421.8,99.4,447z M75.9,382.3c-21.3-12.2-48.5-5-60.8,16.2
		c-12.3,21.2-5,48.3,16.3,60.5c21.3,12.2,48.5,5,60.8-16.2C104.4,421.6,97.2,394.5,75.9,382.3z M74.7,442.8c6,0.3,5.7,1.9,2.6,4.5
		c-3.2,2.6-7.4,3.7-7.4,3.7l-32.4-4.5c0,0,29.4-3.8,36.5-3.7c-1.4-0.9-6.6-3.9-13-3.9c-7.6,0-28.2,4.7-28.2,4.7s29.5-15.5,29.5-33.7
		c0-11.1-9-20.8-9-20.8s30,6.1,30,32.4C83.3,433.9,76.2,441.4,74.7,442.8z M32.7,415.9c-11.7,12.2-3.4,29.5-3.4,29.5
		s-13.4-20.9-0.5-32.7c17.9-16.3,33.2-2.9,33.2-2.9S45.4,402.7,32.7,415.9z"/>
</g>
</svg>
