<?xml version="1.0" encoding="utf-8"?>
<!-- Generator: Adobe Illustrator 17.1.0, SVG Export Plug-In . SVG Version: 6.00 Build 0)  -->
<!DOCTYPE svg PUBLIC "-//W3C//DTD SVG 1.1//EN" "http://www.w3.org/Graphics/SVG/1.1/DTD/svg11.dtd">
<svg version="1.1" id="Layer_1" xmlns="http://www.w3.org/2000/svg" xmlns:xlink="http://www.w3.org/1999/xlink" x="0px" y="0px"
	 viewBox="0 247.9 595.3 594" enable-background="new 0 247.9 595.3 594" xml:space="preserve">
<g>
	<path fill="#3FA9EB" d="M552.4,692.1c-81.2,140.2-261.5,188-402.2,107.4s-189.2-259.8-107.9-400s261.5-188,402.2-107.4
		C585.8,372.7,633.7,551.9,552.4,692.1z M422.3,332.1C304.3,264.3,153,304.3,84.6,422.3s-27.8,268.2,90.7,336
		c117.9,67.9,269.3,27.8,337.7-90.1C580.8,550.8,540.2,400.6,422.3,332.1z M308.2,554.1c2.8-4.5,2.2-10-1.7-13.9
		c-3.9-3.9-9.5-4.5-13.9-1.7l-33.4-33.4l174.7-96.2l3.9,3.3l-95.7,175.2L308.2,554.1z M274.8,508.5l30,30l106.8-106.3L274.8,508.5z
		 M290.4,556.3c3.9,3.9,9.5,4.5,13.9,1.7l32.8,33.4l-174.7,95.7l-3.3-3.3L255.4,509l32.8,33.4C286,546.9,286.5,552.4,290.4,556.3z"
		/>
</g>
</svg>
