<?xml version="1.0" encoding="utf-8"?>
<!-- Generator: Adobe Illustrator 17.1.0, SVG Export Plug-In . SVG Version: 6.00 Build 0)  -->
<!DOCTYPE svg PUBLIC "-//W3C//DTD SVG 1.1//EN" "http://www.w3.org/Graphics/SVG/1.1/DTD/svg11.dtd">
<svg version="1.1" id="Layer_1" xmlns="http://www.w3.org/2000/svg" xmlns:xlink="http://www.w3.org/1999/xlink" x="0px" y="0px"
	 viewBox="0 367.7 107 106.4" enable-background="new 0 367.7 107 106.4" xml:space="preserve">
<g>
	<path fill-rule="evenodd" clip-rule="evenodd" fill="#FFFFFF" d="M101.3,433h-4.4c-1.4,11.6-8.4,21.6-18.6,27.9v9.8
		c0,1.6-1.3,2.9-2.9,2.9h-9.4c-1.6,0-2.9-1.3-2.9-2.9v-3.9c-3,0.6-6.2,0.9-9.4,0.9c-2.8,0-5.6-0.2-8.3-0.7v3.7
		c0,1.6-1.3,2.9-2.9,2.9h-9.4c-1.6,0-2.9-1.3-2.9-2.9v-9.1c-8.6-5-15.2-12.6-18.2-21.5H6.3c-2.6,0-4.7-2.1-4.7-4.7v-15.9
		c0-2.6,2.1-4.7,4.7-4.7h6.5c2.7-6.3,7.3-11.7,13-15.9l1.4-15.3c0,0-0.1-1.3,1.3-1.8c1.5-0.7,2.7,0.8,2.7,0.8l10.3,7.7
		c2.8,8.3,10.6,14.2,19.7,14.2c6.6,0,12.5-3.1,16.4-7.9c10.1,5.9,17.2,15.5,19.1,26.6h4.6c2.6,0,4.7,2.1,4.7,4.7v0.6
		C106,430.9,103.9,433,101.3,433z M30.9,405.3c-1.1,0-2.1,0.3-2.9,0.7c2.6,0,4.7,2.1,4.7,4.8c0,2.6-2.1,4.8-4.8,4.8
		c-1.3,0-2.5-0.5-3.3-1.3c0.9,2.6,3.4,4.5,6.3,4.5c3.7,0,6.7-3,6.7-6.7C37.6,408.3,34.6,405.3,30.9,405.3z M61.2,398.8
		c-8.5,0-15.3-6.9-15.3-15.3c0-8.5,6.9-15.3,15.3-15.3s15.3,6.9,15.3,15.3C76.5,392,69.7,398.8,61.2,398.8z M66.6,388.1h-6.2
		c0.1-0.5,0.1-1.1,0.2-1.7c0.1-0.6,0.1-1.2,0.1-1.8h3.9v-2.9h-3.9v-1.5c0-0.6,0.1-1,0.2-1.4c0.1-0.4,0.3-0.7,0.5-0.9
		c0.2-0.2,0.5-0.4,0.8-0.4c0.3-0.1,0.7-0.1,1-0.1c0.5,0,0.8,0.1,1.2,0.1c0.3,0.1,0.7,0.2,1,0.4l0.9-2.8c-0.5-0.2-1.1-0.4-1.6-0.5
		c-0.6-0.1-1.1-0.2-1.8-0.2c-0.8,0-1.6,0.1-2.3,0.3c-0.7,0.2-1.3,0.5-1.8,1c-0.5,0.5-0.9,1.1-1.2,1.9c-0.3,0.8-0.4,1.8-0.4,2.9v1.3
		h-2.1v2.9h2.1c0,0.9-0.1,1.9-0.2,3c-0.1,1.1-0.3,2.2-0.6,3.5h10.1V388.1z"/>
</g>
<g>
	<path fill-rule="evenodd" clip-rule="evenodd" fill="none" d="M23.7,397.5v75.7H0.4v-71.6L23.7,397.5z M50.6,386.1v87H27.3v-82.9
		L50.6,386.1z M78.3,389.3v83.9H55v-79.8L78.3,389.3z M106,377.8v95.3H82.7v-91.2L106,377.8z"/>
</g>
</svg>
