<?xml version="1.0" encoding="utf-8"?>
<!-- Generator: Adobe Illustrator 18.0.0, SVG Export Plug-In . SVG Version: 6.00 Build 0)  -->
<!DOCTYPE svg PUBLIC "-//W3C//DTD SVG 1.1//EN" "http://www.w3.org/Graphics/SVG/1.1/DTD/svg11.dtd">
<svg version="1.1" id="Layer_1" xmlns="http://www.w3.org/2000/svg" xmlns:xlink="http://www.w3.org/1999/xlink" x="0px" y="0px"
	 viewBox="0 682.6 612 109.4" enable-background="new 0 682.6 612 109.4" xml:space="preserve">
<g>
	<g>
		<path fill="#3FA9EB" d="M172.4,744.2l-25.2-37.9h-7.9v69.3h7.6v-56l25.2,37h0.4l25.2-37.1v56.2h7.8v-69.4h-7.9L172.4,744.2z
			 M239.5,723.4c-15.4,0-26.7,12.3-26.7,26.8v0.2c0,14.5,11.2,26.6,26.5,26.6c15.4,0,26.8-12.3,26.8-26.8V750
			C266.2,735.5,254.9,723.4,239.5,723.4z M258.3,750.4c0,10.8-7.7,19.7-18.8,19.7c-10.8,0-18.9-8.9-18.9-19.9V750
			c0-10.8,7.6-19.8,18.7-19.8c10.8,0,19,9,19,20V750.4z M297.2,723.4c-8.8,0-14.2,4.5-17.5,10v-8.9H272v51.2h7.6v-29.3
			c0-9.6,6.5-16,15.3-16c9,0,14.2,6,14.2,15.5v29.9h7.6V744C316.8,731.7,309.5,723.4,297.2,723.4z M370.3,750.6
			c0-15-8.7-27.1-23.9-27.1c-14.2,0-24.6,11.9-24.6,26.8c0,16,11.5,26.8,25.6,26.8c9.7,0,16-3.8,21.1-9.6l-4.8-4.3
			c-4.2,4.4-9.1,7.3-16.1,7.3c-9,0-16.9-6.2-18-17.1h40.6C370.3,752.1,370.3,751.3,370.3,750.6z M329.6,747.1
			c1.1-9.9,7.8-17.3,16.6-17.3c10.1,0,15.4,7.9,16.3,17.3H329.6z M411.6,724.5l-16.5,42.8l-18.6-42.7h-8.4l23.3,51
			c-3.1,7.3-6,9.6-10.5,9.6c-3.3,0-5.5-0.6-8-1.9l-2.6,6.1c3.5,1.7,6.6,2.6,10.9,2.6c7.7,0,12.7-3.8,17-14.5l21.5-52.9L411.6,724.5
			L411.6,724.5z"/>
	</g>
</g>
<path fill="#315063" d="M587.9,776.9c-8,0-13-3.7-16.5-7.9v6.9h-15v-70l13.6-2.4h1.5v26.9c3.7-4.9,8.7-8.6,16.5-8.6
	c12.4,0,24.2,9.7,24.2,27.4v0.2C612,767.2,600.4,776.9,587.9,776.9z M597,749.3c0-8.8-6-14.7-13-14.7s-12.9,5.9-12.9,14.7v0.2
	c0,8.8,5.9,14.7,12.9,14.7s13-5.8,13-14.7V749.3z M531.8,725.2l13.4-2.3h1.7V776h-15v-7.5c-3.5,4.5-7.9,8.5-15.5,8.5
	c-11.4,0-18-7.5-18-19.7v-32.1l13.4-2.3h1.7v29.6c0,7.1,3.4,10.8,9.1,10.8c5.8,0,9.4-3.7,9.4-10.8L531.8,725.2L531.8,725.2z
	 M472.2,748.1h-28.1v27.8h-15.2V709l13.7-2.4h1.5V734h28.1v-25l14-2.4h1.2v69.3h-15.2V748.1L472.2,748.1z"/>
<path fill="#3FA9EB" d="M87.6,756.7c-2.1,3.6-4.8,6.7-7.7,9.4v-50.3c1.7-0.2,3.3-0.5,4.8-0.7C93.8,726.7,95.5,743.1,87.6,756.7z
	 M76.2,768.8c-5.7,3.8-12.3,6.1-19.1,6.4v-50.1c7-1.1,13.5-2.1,19.1-2.9V768.8z M33.8,768.8v-46c6.7-1.1,13.4-2.1,19.7-3v55.5
	c-5.9-0.2-11.8-1.8-17.3-4.9C35.4,769.9,34.5,769.4,33.8,768.8z M18,731.3c4-0.6,8-1.2,12.1-1.9c0,0,0,0,0.1-0.1V766
	C20.1,757.3,15.6,744,18,731.3z"/>
<path fill="#315063" d="M102.6,764.7c-15.2,26.1-48.8,35.1-75.2,20c-26.2-15.1-35.2-48.6-20-74.8c15.2-26.1,48.8-35.1,75.1-20
	C108.8,705,117.8,738.5,102.6,764.7z M78.2,697.4c-22.1-12.7-50.3-5.1-63,16.9s-5.2,50.1,16.9,62.8s50.3,5.1,63-16.8
	C107.9,738.3,100.3,710.2,78.2,697.4z"/>
</svg>
